<?xml version="1.0" encoding="UTF-8"?>
<svg xmlns="http://www.w3.org/2000/svg" xmlns:xlink="http://www.w3.org/1999/xlink" width="22px" height="22px" viewBox="0 0 22 22" version="1.1">
<g id="surface1">
<path style=" stroke:none;fill-rule:nonzero;fill:rgb(0%,0%,0%);fill-opacity:1;" d="M 17.953125 20.566406 L 5.542969 20.566406 C 5.113281 20.566406 4.761719 20.214844 4.761719 19.785156 C 4.761719 19.363281 5.105469 19.007812 5.542969 19.007812 L 17.167969 19.007812 C 17.925781 19.007812 18.542969 18.394531 18.542969 17.636719 L 18.542969 1.371094 C 18.542969 0.617188 17.925781 0 17.167969 0 L 5.558594 0 C 4.339844 0 3.347656 0.992188 3.347656 2.214844 C 3.328125 19.160156 3.328125 19.785156 3.328125 19.785156 C 3.328125 21.253906 4.304688 22 5.542969 22 L 17.953125 22 C 18.351562 22 18.671875 21.679688 18.671875 21.28125 C 18.671875 20.886719 18.351562 20.566406 17.953125 20.566406 Z M 4.78125 2.214844 C 4.78125 1.785156 5.132812 1.433594 5.558594 1.433594 L 17.109375 1.433594 L 17.109375 17.574219 L 5.542969 17.574219 C 5.289062 17.574219 5.023438 17.617188 4.78125 17.707031 Z M 4.78125 2.214844 "/>
<path style=" stroke:none;fill-rule:nonzero;fill:rgb(0%,0%,0%);fill-opacity:1;" d="M 12.558594 5.644531 L 11.664062 5.644531 L 11.664062 4.457031 C 11.664062 4.0625 11.339844 3.738281 10.945312 3.738281 C 10.546875 3.738281 10.226562 4.0625 10.226562 4.457031 L 10.226562 5.644531 L 9.332031 5.644531 C 8.9375 5.644531 8.617188 5.964844 8.617188 6.363281 C 8.617188 6.757812 8.9375 7.078125 9.332031 7.078125 L 10.226562 7.078125 L 10.226562 10.902344 C 10.226562 11.300781 10.546875 11.621094 10.945312 11.621094 C 11.339844 11.621094 11.664062 11.300781 11.664062 10.902344 L 11.664062 7.078125 L 12.558594 7.078125 C 12.953125 7.078125 13.273438 6.757812 13.273438 6.363281 C 13.273438 5.964844 12.953125 5.644531 12.558594 5.644531 Z M 12.558594 5.644531 "/>
</g>
</svg>
