<?xml version="1.0" encoding="UTF-8"?>
<svg xmlns="http://www.w3.org/2000/svg" xmlns:xlink="http://www.w3.org/1999/xlink" width="30px" height="30px" viewBox="0 0 30 30" version="1.1">
<g id="surface1">
<path style=" stroke:none;fill-rule:nonzero;fill:rgb(0%,0%,0%);fill-opacity:1;" d="M 15 30 C 23.269531 30 30 23.269531 30 15 C 30 6.730469 23.269531 0 15 0 C 6.730469 0 0 6.730469 0 15 C 0 23.269531 6.730469 30 15 30 Z M 15 1.5 C 22.445312 1.5 28.5 7.554688 28.5 15 C 28.5 22.445312 22.445312 28.5 15 28.5 C 7.554688 28.5 1.5 22.445312 1.5 15 C 1.5 7.554688 7.554688 1.5 15 1.5 Z M 15 1.5 "/>
<path style=" stroke:none;fill-rule:nonzero;fill:rgb(0%,0%,0%);fill-opacity:1;" d="M 8.484375 15.753906 L 19.703125 15.753906 L 16.769531 18.6875 C 16.472656 18.984375 16.472656 19.453125 16.769531 19.746094 C 16.914062 19.894531 17.105469 19.96875 17.300781 19.96875 C 17.496094 19.96875 17.6875 19.894531 17.832031 19.746094 L 22.046875 15.53125 C 22.339844 15.238281 22.339844 14.765625 22.046875 14.472656 L 17.832031 10.257812 C 17.539062 9.964844 17.066406 9.964844 16.773438 10.257812 C 16.480469 10.550781 16.480469 11.023438 16.773438 11.316406 L 19.710938 14.253906 L 8.484375 14.253906 C 8.070312 14.253906 7.734375 14.589844 7.734375 15.007812 C 7.734375 15.421875 8.070312 15.753906 8.484375 15.753906 Z M 8.484375 15.753906 "/>
</g>
</svg>
