<?xml version="1.0" encoding="UTF-8"?>
<svg xmlns="http://www.w3.org/2000/svg" xmlns:xlink="http://www.w3.org/1999/xlink" width="23px" height="23px" viewBox="0 0 23 23" version="1.1">
<g id="surface1">
<path style=" stroke:none;fill-rule:nonzero;fill:rgb(0%,0%,0%);fill-opacity:1;" d="M 11.5 0 C 5.160156 0 0 5.160156 0 11.5 C 0 17.839844 5.160156 23 11.5 23 C 17.839844 23 23 17.839844 23 11.5 C 23 5.160156 17.839844 0 11.5 0 Z M 11.5 22.179688 C 5.613281 22.179688 0.820312 17.386719 0.820312 11.5 C 0.820312 5.613281 5.613281 0.820312 11.5 0.820312 C 17.386719 0.820312 22.179688 5.613281 22.179688 11.5 C 22.179688 17.386719 17.386719 22.179688 11.5 22.179688 Z M 11.5 22.179688 "/>
<path style=" stroke:none;fill-rule:nonzero;fill:rgb(0%,0%,0%);fill-opacity:1;" d="M 11.789062 3.816406 C 11.628906 3.65625 11.371094 3.65625 11.210938 3.816406 L 4.636719 10.386719 C 4.519531 10.503906 4.484375 10.683594 4.550781 10.835938 C 4.613281 10.988281 4.761719 11.089844 4.929688 11.089844 L 6.160156 11.089844 L 6.160156 18.480469 C 6.160156 18.707031 6.34375 18.894531 6.570312 18.894531 L 16.429688 18.894531 C 16.65625 18.894531 16.839844 18.707031 16.839844 18.480469 L 16.839844 11.089844 L 18.070312 11.089844 C 18.238281 11.089844 18.386719 10.988281 18.449219 10.835938 C 18.515625 10.683594 18.480469 10.503906 18.363281 10.386719 Z M 10.269531 18.070312 L 10.269531 13.554688 L 12.730469 13.554688 L 12.730469 18.070312 Z M 16.019531 18.070312 L 13.554688 18.070312 L 13.554688 13.144531 C 13.554688 12.917969 13.371094 12.730469 13.144531 12.730469 L 9.855469 12.730469 C 9.628906 12.730469 9.445312 12.917969 9.445312 13.144531 L 9.445312 18.070312 L 6.980469 18.070312 L 6.980469 11.089844 L 16.019531 11.089844 Z M 16.429688 10.269531 L 5.921875 10.269531 L 11.5 4.6875 L 17.078125 10.269531 Z M 16.429688 10.269531 "/>
</g>
</svg>
