<?xml version="1.0" encoding="UTF-8"?>
<svg xmlns="http://www.w3.org/2000/svg" xmlns:xlink="http://www.w3.org/1999/xlink" width="23px" height="23px" viewBox="0 0 23 23" version="1.1">
<g id="surface1">
<path style=" stroke:none;fill-rule:nonzero;fill:rgb(0%,0%,0%);fill-opacity:1;" d="M 20.238281 3.9375 C 19.011719 1.828125 13.46875 1.378906 12.839844 1.324219 L 12.140625 1.277344 L 12.140625 14.273438 C 11.976562 14.140625 11.800781 14.019531 11.613281 13.914062 C 10.316406 13.261719 8.8125 13.167969 7.441406 13.652344 C 4.835938 14.503906 3.144531 16.929688 3.691406 19.0625 C 3.941406 19.976562 4.554688 20.746094 5.390625 21.1875 C 6.101562 21.5625 6.894531 21.757812 7.699219 21.746094 C 8.339844 21.746094 8.976562 21.644531 9.582031 21.449219 C 11.929688 20.695312 13.523438 18.679688 13.453125 16.746094 L 13.453125 5.96875 C 14.878906 6.109375 16.285156 6.417969 17.640625 6.878906 C 17.96875 7.007812 18.339844 6.84375 18.46875 6.511719 C 18.59375 6.183594 18.429688 5.8125 18.101562 5.6875 C 16.585938 5.164062 15.011719 4.828125 13.417969 4.683594 L 13.417969 2.664062 C 15.542969 2.894531 18.527344 3.546875 19.117188 4.582031 C 20.394531 6.757812 17.625 9.28125 17.601562 9.308594 C 17.359375 9.546875 17.347656 9.933594 17.574219 10.1875 C 17.800781 10.441406 18.1875 10.472656 18.449219 10.261719 C 18.625 10.125 22.042969 7.027344 20.238281 3.9375 Z M 9.167969 20.234375 C 8.125 20.613281 6.972656 20.550781 5.972656 20.066406 C 5.445312 19.796875 5.050781 19.316406 4.894531 18.746094 C 4.511719 17.257812 5.820312 15.519531 7.820312 14.875 C 8.292969 14.71875 8.789062 14.640625 9.289062 14.636719 C 9.878906 14.625 10.460938 14.761719 10.984375 15.03125 C 11.511719 15.300781 11.902344 15.78125 12.0625 16.355469 C 12.484375 17.851562 11.175781 19.589844 9.167969 20.234375 Z M 9.167969 20.234375 "/>
</g>
</svg>
